<?xml version="1.0" encoding="UTF-8"?>
<svg width="15px" height="15px" viewBox="0 0 15 15" version="1.1" xmlns="http://www.w3.org/2000/svg" xmlns:xlink="http://www.w3.org/1999/xlink">
    <!-- Generator: Sketch 50.2 (55047) - http://www.bohemiancoding.com/sketch -->
    <title>Shape</title>
    <desc>Created with Sketch.</desc>
    <defs></defs>
    <g id="Page-1" stroke="none" stroke-width="1" fill="none" fill-rule="evenodd">
        <g id="Desktop-HD" transform="translate(-1248.000000, -5229.000000)" fill="#EF4689">
            <g id="Social-Icon-Set" transform="translate(1135.000000, 5229.000000)">
                <g id="web-design3-copy-2" transform="translate(113.000000, 0.000000)">
                    <path d="M7.14554348,5.3973913 C6.03798913,3.42896739 4.85413043,1.82445652 4.76722826,1.70690217 C2.98092391,2.55097826 1.64788043,4.19625 1.23211957,6.17934783 C1.40021739,6.18244565 4.06956522,6.21456522 7.14554348,5.3973913 L7.14554348,5.3973913 Z M7.94331522,7.54907609 C8.02711957,7.5225 8.11108696,7.49722826 8.19586957,7.47293478 C8.0351087,7.10869565 7.85967391,6.74413043 7.67608696,6.38445652 C4.37788043,7.37152174 1.21255435,7.29994565 1.10021739,7.29717391 C1.09826087,7.36451087 1.09516304,7.43168478 1.09516304,7.5 C1.09516304,9.14706522 1.71733696,10.6480435 2.73831522,11.782663 C2.7363587,11.7805435 2.73391304,11.7771196 2.73391304,11.7771196 C2.73391304,11.7771196 4.48711957,8.66690217 7.94331522,7.54907609 L7.94331522,7.54907609 Z M3.56331522,12.5492935 L3.56429348,12.5466848 C3.51684783,12.5093478 3.46581522,12.4752717 3.41934783,12.4364674 C3.50445652,12.5046196 3.56331522,12.5492935 3.56331522,12.5492935 L3.56331522,12.5492935 Z M5.96576087,1.2813587 C5.96005435,1.28266304 5.95434783,1.28413043 5.94880435,1.28527174 C5.95875,1.28282609 5.96461957,1.28184783 5.96461957,1.28184783 L5.96576087,1.2813587 L5.96576087,1.2813587 Z M11.730163,2.69315217 C10.6022283,1.69923913 9.12179348,1.095 7.5,1.095 C6.97972826,1.095 6.47494565,1.15875 5.99086957,1.27548913 C6.08836957,1.40461957 7.29048913,3.00195652 8.38532609,5.01211957 C10.8003261,4.10673913 11.7133696,2.71940217 11.730163,2.69315217 L11.730163,2.69315217 Z M7.5,15 C3.35804348,15 0,11.6417935 0,7.5 C0,3.35804348 3.35804348,0 7.5,0 C11.6422826,0 15,3.35804348 15,7.5 C15,11.6417935 11.6422826,15 7.5,15 L7.5,15 Z M8.58978261,8.54820652 C4.83048913,9.85793478 3.58956522,12.4927174 3.56445652,12.5466848 C4.65097826,13.395163 6.01483696,13.905 7.50016304,13.905 C8.38728261,13.905 9.23217391,13.7245109 10.0004348,13.3982609 C9.90554348,12.8367391 9.53298913,10.875 8.63217391,8.5338587 C8.61798913,8.53875 8.60396739,8.54282609 8.58978261,8.54820652 L8.58978261,8.54820652 Z M8.87788043,5.96641304 C9.02755435,6.27195652 9.17054348,6.58222826 9.30358696,6.89543478 C9.35103261,7.00597826 9.39684783,7.1163587 9.44184783,7.22625 C11.6540217,6.94809783 13.8317935,7.4201087 13.9030435,7.43559783 C13.8878804,5.91554348 13.3449457,4.52217391 12.44625,3.43125 C12.4333696,3.45048913 11.4058696,4.93418478 8.87788043,5.96641304 L8.87788043,5.96641304 Z M9.83233696,8.23744565 C10.6736413,10.548913 11.0144022,12.4291304 11.0789674,12.8122826 C12.5170109,11.8411957 13.5389674,10.3019022 13.8236413,8.51592391 C13.6963043,8.47483696 11.9031522,7.90597826 9.83233696,8.23744565 L9.83233696,8.23744565 Z" id="Shape"></path>
                </g>
            </g>
        </g>
    </g>
</svg>