<?xml version="1.0" encoding="UTF-8"?>
<svg width="16px" height="15px" viewBox="0 0 16 15" version="1.1" xmlns="http://www.w3.org/2000/svg" xmlns:xlink="http://www.w3.org/1999/xlink">
    <!-- Generator: Sketch 50.2 (55047) - http://www.bohemiancoding.com/sketch -->
    <title>LinkedIn_3_</title>
    <desc>Created with Sketch.</desc>
    <defs></defs>
    <g id="Page-1" stroke="none" stroke-width="1" fill="none" fill-rule="evenodd">
        <g id="Desktop-HD" transform="translate(-1304.000000, -5229.000000)" fill="#0079B7">
            <g id="Social-Icon-Set" transform="translate(1135.000000, 5229.000000)">
                <g id="socialnetwork106" transform="translate(169.000000, 0.000000)">
                    <path d="M15.9721086,9.19631004 L15.9721086,14.9848035 L12.5474071,14.9848035 L12.5474071,9.58129913 C12.5474071,8.22275109 12.0536117,7.29943231 10.8144301,7.29943231 C9.86675574,7.29943231 9.30772443,7.9245524 9.05817119,8.52615721 C8.96831733,8.74280568 8.94102714,9.04621179 8.94102714,9.34572052 L8.94102714,14.9841157 L5.51969937,14.9841157 C5.51969937,14.9841157 5.56562839,5.83581878 5.51969937,4.88836245 L8.9417286,4.88836245 L8.9417286,6.31932314 C8.93708559,6.33108079 8.92709812,6.34084061 8.92242171,6.3539083 L8.9417286,6.3539083 L8.9417286,6.31932314 C9.39891441,5.63158297 10.2088351,4.6514738 12.0276576,4.6514738 C14.2850605,4.65150655 15.9721086,6.09422489 15.9721086,9.19631004 L15.9721086,9.19631004 Z M1.93726931,0.0206004367 C0.766663883,0.0206004367 0,0.773613537 0,1.76675764 C0,2.7331441 0.744050104,3.5116048 1.89334447,3.5116048 L1.91398747,3.5116048 C3.11054697,3.5116048 3.85192484,2.7331441 3.85192484,1.76675764 C3.82864301,0.773613537 3.11058038,0.0206004367 1.93726931,0.0206004367 L1.93726931,0.0206004367 Z M0.204325678,14.9847707 L3.62702296,14.9847707 L3.62702296,4.88774017 L0.204325678,4.88774017 L0.204325678,14.9847707 L0.204325678,14.9847707 Z" id="LinkedIn_3_"></path>
                </g>
            </g>
        </g>
    </g>
</svg>