<?xml version="1.0" encoding="UTF-8"?>
<svg width="19px" height="15px" viewBox="0 0 19 15" version="1.1" xmlns="http://www.w3.org/2000/svg" xmlns:xlink="http://www.w3.org/1999/xlink">
    <!-- Generator: Sketch 50.2 (55047) - http://www.bohemiancoding.com/sketch -->
    <title>Shape</title>
    <desc>Created with Sketch.</desc>
    <defs></defs>
    <g id="Page-1" stroke="none" stroke-width="1" fill="none" fill-rule="evenodd">
        <g id="Desktop-HD" transform="translate(-1187.000000, -5229.000000)" fill="#12A9E3">
            <g id="Social-Icon-Set" transform="translate(1135.000000, 5229.000000)">
                <g id="twitter1-copy-2" transform="translate(52.000000, 0.000000)">
                    <path d="M18.173913,1.78487952 C17.5050121,2.08551205 16.787291,2.28939759 16.0331924,2.38042169 C16.8031783,1.91274096 17.3925833,1.17093373 17.6719329,0.289728916 C16.9496684,0.722831325 16.1524216,1.03731928 15.3029396,1.2078012 C14.6226948,0.471746988 13.6551121,0.0132831325 12.581901,0.0132831325 C10.5229629,0.0132831325 8.85354646,1.70656627 8.85354646,3.79379518 C8.85354646,4.08981928 8.88647926,4.37894578 8.95008795,4.65542169 C5.8520297,4.49759036 3.10488832,2.99207831 1.26626442,0.70439759 C0.944865303,1.26192771 0.762027423,1.91156627 0.762027423,2.60503012 C0.762027423,3.91704819 1.42071299,5.0746988 2.42010003,5.75198795 C1.80910614,5.73126506 1.23446007,5.56078313 0.731381216,5.27740964 L0.731381216,5.32463855 C0.731381216,7.15614458 2.016948,8.6846988 3.72155413,9.03259036 C3.40924197,9.11783133 3.07991404,9.16506024 2.73921256,9.16506024 C2.4984676,9.16506024 2.26565146,9.14087349 2.0373788,9.09478916 C2.51206834,10.598012 3.88850469,11.6911446 5.51931643,11.7211145 C4.24396505,12.7347892 2.6358707,13.3372289 0.889244814,13.3372289 C0.588306195,13.3372289 0.291881358,13.3187952 2.96959354e-05,13.2853916 C1.65014379,14.3601205 3.60915502,14.986747 5.71465629,14.986747 C12.5728734,14.986747 16.3216884,9.22496988 16.3216884,4.22807229 L16.3091864,3.7385241 C17.0416664,3.20861446 17.675348,2.54283133 18.173913,1.78487952 L18.173913,1.78487952 Z" id="Shape"></path>
                </g>
            </g>
        </g>
    </g>
</svg>